<svg viewBox="0 0 24 24" xmlns="http://www.w3.org/2000/svg" xml:space="preserve" style="fill-rule:evenodd;clip-rule:evenodd;stroke-linecap:round;stroke-linejoin:round"><path d="M24 6v12c0 3.311-2.689 6-6 6H6c-3.311 0-6-2.689-6-6V6c0-3.311 2.689-6 6-6h12c3.311 0 6 2.689 6 6"/><path d="M4 20h16c1.097 0 2-.903 2-2V8c0-1.097-.903-2-2-2h-7.93a2 2 0 0 1-1.66-.9l-.82-1.2A2 2 0 0 0 7.93 3H4c-1.097 0-2 .903-2 2v13c0 1.1.9 2 2 2m4-10v4m4-4v2m4-2v6" style="fill:none;fill-rule:nonzero;stroke:#fff;stroke-width:2px" transform="matrix(.8 0 0 .7647 2.4 3.206)"/></svg>
