<?xml version="1.0" encoding="UTF-8" standalone="no"?>
<!DOCTYPE svg PUBLIC "-//W3C//DTD SVG 1.1//EN" "http://www.w3.org/Graphics/SVG/1.1/DTD/svg11.dtd">
<svg width="100%" height="100%" viewBox="0 0 24 24" version="1.1" xmlns="http://www.w3.org/2000/svg" xmlns:xlink="http://www.w3.org/1999/xlink" xml:space="preserve" xmlns:serif="http://www.serif.com/" style="fill-rule:evenodd;clip-rule:evenodd;stroke-linecap:round;stroke-linejoin:round;">
    <g>
        <path d="M24,6L24,18C24,21.311 21.311,24 18,24L6,24C2.689,24 0,21.311 0,18L0,6C0,2.689 2.689,0 6,0L18,0C21.311,0 24,2.689 24,6Z"/>
        <g transform="matrix(0.8,0,0,0.764706,2.4,2.823529)">
            <g transform="matrix(1,0,0,1,0,0.5)">
                <path d="M4,20L20,20C21.097,20 22,19.097 22,18L22,8C22,6.903 21.097,6 20,6L12.07,6C11.402,5.997 10.778,5.658 10.41,5.1L9.59,3.9C9.222,3.342 8.598,3.003 7.93,3L4,3C2.903,3 2,3.903 2,5L2,18C2,19.1 2.9,20 4,20Z" style="fill:none;fill-rule:nonzero;stroke:white;stroke-width:2px;"/>
            </g>
            <g transform="matrix(1,0,0,1,0,0.5)">
                <path d="M8,10L8,14" style="fill:none;fill-rule:nonzero;stroke:white;stroke-width:2px;"/>
            </g>
            <g transform="matrix(1,0,0,1,0,0.5)">
                <path d="M12,10L12,12" style="fill:none;fill-rule:nonzero;stroke:white;stroke-width:2px;"/>
            </g>
            <g transform="matrix(1,0,0,1,0,0.5)">
                <path d="M16,10L16,16" style="fill:none;fill-rule:nonzero;stroke:white;stroke-width:2px;"/>
            </g>
        </g>
    </g>
</svg>
